<svg xmlns="http://www.w3.org/2000/svg" xmlns:xlink="http://www.w3.org/1999/xlink" version="1.1" id="Слой_1" x="0px" y="0px" viewBox="0 0 64 64" style="enable-background:new 0 0 64 64;" xml:space="preserve" width="64" height="64">
<linearGradient id="SVGID_1__43676" gradientUnits="userSpaceOnUse" x1="44.0001" y1="15" x2="44.0001" y2="21.6667" spreadMethod="reflect">
	<stop offset="0" style="stop-color:#6DC7FF"/>
	<stop offset="1" style="stop-color:#E6ABFF"/>
</linearGradient>
<circle style="fill:url(#SVGID_1__43676);" cx="44" cy="18" r="3"/>
<linearGradient id="SVGID_2__43676" gradientUnits="userSpaceOnUse" x1="32" y1="10.6667" x2="32" y2="53.3542" spreadMethod="reflect">
	<stop offset="0" style="stop-color:#1A6DFF"/>
	<stop offset="1" style="stop-color:#C822FF"/>
</linearGradient>
<path style="fill:url(#SVGID_2__43676);" d="M57.005,14.992c-0.623-0.36-1.37-0.364-1.995-0.007L51,17.277V16c0-2.757-2.243-5-5-5H30  c-2.757,0-5,2.243-5,5v3.048c-10.831,0.407-16.321,3.964-16.555,4.12l-0.224,0.149l-0.119,0.241C8.017,23.732,6,27.923,6,36  s2.017,12.268,2.103,12.441l0.119,0.241l0.224,0.149C8.7,49.002,14.837,53,27,53s18.3-3.998,18.555-4.168l0.213-0.143l0.119-0.227  C45.973,48.297,48,44.316,48,36c0-1.153-0.05-2.277-0.129-3.371C49.702,31.886,51,30.094,51,28v-1.277L55.01,29h0.001  c0.311,0,0.65,0.274,0.99,0.274c0.346,0,0.69-0.088,1.004-0.27C57.628,28.642,58,28,58,27.279V16.721  C58,16,57.628,15.354,57.005,14.992z M30,33h2.657C32.883,33.639,33,34.309,33,35v3c0,3.309-2.691,6-6,6s-6-2.691-6-6v-3  c0-2.635,1.746-4.934,4.19-5.711C25.762,31.419,27.692,33,30,33z M45.892,33c0.031,0.464,0.058,0.93,0.075,1.408  C45.351,34.144,44.684,34,44,34c-2.757,0-5,2.243-5,5v2c0,0.793,0.202,1.532,0.532,2.199c-1.15,0.661-2.142,1.569-2.902,2.652  c-0.887-1.193-2-2.214-3.274-3.013C34.383,41.493,35,39.819,35,38v-3c0-0.684-0.094-1.351-0.262-2H45.892z M41,41v-2  c0-1.654,1.346-3,3-3c0.741,0,1.442,0.289,1.99,0.779c-0.048,2.897-0.354,5.196-0.707,6.91C44.882,43.88,44.448,44,44,44  C42.346,44,41,42.654,41,41z M9.789,24.691C10.911,24.043,16.032,21.4,25,21.047v6.211c-3.474,0.9-6,4.083-6,7.742v3  c0,1.819,0.617,3.493,1.644,4.838c-1.273,0.8-2.387,1.82-3.273,3.013c-0.76-1.084-1.752-1.992-2.902-2.653  C14.798,42.532,15,41.792,15,41v-2c0-2.757-2.243-5-5-5c-0.685,0-1.353,0.144-1.968,0.408C8.232,28.881,9.42,25.586,9.789,24.691z   M8.01,36.777C8.557,36.288,9.258,36,10,36c1.654,0,3,1.346,3,3v2c0,1.654-1.346,3-3,3c-0.441,0-0.867-0.118-1.262-0.303  C8.376,41.962,8.06,39.645,8.01,36.777z M9.312,45.95C9.54,45.982,9.769,46,10,46c1.235,0,2.352-0.467,3.226-1.212  c1.276,0.665,2.326,1.717,2.99,2.994c-0.278,0.57-0.522,1.157-0.706,1.767c-3.165-0.87-5.088-1.876-5.72-2.241  C9.683,47.052,9.51,46.594,9.312,45.95z M17.452,50.03c0.753-2.408,2.425-4.471,4.639-5.726C23.448,45.363,25.149,46,27,46  s3.552-0.637,4.908-1.696c2.215,1.254,3.887,3.316,4.64,5.726C33.982,50.585,30.799,51,27,51C23.201,51,20.018,50.585,17.452,50.03z   M38.49,49.55c-0.184-0.611-0.428-1.197-0.706-1.767c0.664-1.277,1.714-2.329,2.99-2.994C41.648,45.533,42.765,46,44,46  c0.238,0,0.474-0.02,0.708-0.054c-0.203,0.653-0.382,1.108-0.489,1.357C43.594,47.666,41.667,48.677,38.49,49.55z M49,28  c0,1.654-1.346,3-3,3H30c-1.654,0-3-1.346-3-3V16c0-1.654,1.346-3,3-3h16c1.654,0,3,1.346,3,3v2.42v7.16V28z M51,19.58l1-0.572  v5.983l-1-0.572V19.58z M56.001,27.278L54,26.135v-8.27l2-1.144l0.006,10.56L56.001,27.278z"/>
<linearGradient id="SVGID_3__43676" gradientUnits="userSpaceOnUse" x1="26.9998" y1="10.6667" x2="26.9998" y2="53.3542" spreadMethod="reflect">
	<stop offset="0" style="stop-color:#1A6DFF"/>
	<stop offset="1" style="stop-color:#C822FF"/>
</linearGradient>
<path style="fill:url(#SVGID_3__43676);" d="M27,42c1.657,0,3-1.343,3-3h-6C24,40.657,25.343,42,27,42z"/>
</svg>