<svg xmlns="http://www.w3.org/2000/svg" xmlns:xlink="http://www.w3.org/1999/xlink" version="1.1" id="Слой_1" x="0px" y="0px" viewBox="0 0 64 64" style="enable-background:new 0 0 64 64;" xml:space="preserve" width="64" height="64">
<linearGradient id="SVGID_1__44800" gradientUnits="userSpaceOnUse" x1="37.5" y1="14.1875" x2="37.5" y2="19.75" spreadMethod="reflect">
	<stop offset="0" style="stop-color:#6DC7FF"/>
	<stop offset="1" style="stop-color:#E6ABFF"/>
</linearGradient>
<circle style="fill:url(#SVGID_1__44800);" cx="37.5" cy="17" r="2.5"/>
<linearGradient id="SVGID_2__44800" gradientUnits="userSpaceOnUse" x1="26.5" y1="14.1875" x2="26.5" y2="19.75" spreadMethod="reflect">
	<stop offset="0" style="stop-color:#6DC7FF"/>
	<stop offset="1" style="stop-color:#E6ABFF"/>
</linearGradient>
<circle style="fill:url(#SVGID_2__44800);" cx="26.5" cy="17" r="2.5"/>
<linearGradient id="SVGID_3__44800" gradientUnits="userSpaceOnUse" x1="32" y1="20.6667" x2="32" y2="26.3347" spreadMethod="reflect">
	<stop offset="0" style="stop-color:#6DC7FF"/>
	<stop offset="1" style="stop-color:#E6ABFF"/>
</linearGradient>
<path style="fill:url(#SVGID_3__44800);" d="M28,22c0,2.209,1.791,4,4,4s4-1.791,4-4v-1h-8V22z"/>
<linearGradient id="SVGID_4__44800" gradientUnits="userSpaceOnUse" x1="43.6233" y1="6.0487" x2="43.3733" y2="58.6737" spreadMethod="reflect">
	<stop offset="0" style="stop-color:#1A6DFF"/>
	<stop offset="1" style="stop-color:#C822FF"/>
</linearGradient>
<rect x="41" y="31" style="fill:url(#SVGID_4__44800);" width="5" height="2"/>
<linearGradient id="SVGID_5__44800" gradientUnits="userSpaceOnUse" x1="20.6238" y1="5.9394" x2="20.3738" y2="58.5644" spreadMethod="reflect">
	<stop offset="0" style="stop-color:#1A6DFF"/>
	<stop offset="1" style="stop-color:#C822FF"/>
</linearGradient>
<rect x="18" y="31" style="fill:url(#SVGID_5__44800);" width="5" height="2"/>
<linearGradient id="SVGID_6__44800" gradientUnits="userSpaceOnUse" x1="42.1423" y1="6.0416" x2="41.8923" y2="58.6666" spreadMethod="reflect">
	<stop offset="0" style="stop-color:#1A6DFF"/>
	<stop offset="1" style="stop-color:#C822FF"/>
</linearGradient>
<rect x="38" y="35" style="fill:url(#SVGID_6__44800);" width="8" height="2"/>
<linearGradient id="SVGID_7__44800" gradientUnits="userSpaceOnUse" x1="22.1428" y1="5.9466" x2="21.8928" y2="58.5716" spreadMethod="reflect">
	<stop offset="0" style="stop-color:#1A6DFF"/>
	<stop offset="1" style="stop-color:#C822FF"/>
</linearGradient>
<rect x="18" y="35" style="fill:url(#SVGID_7__44800);" width="8" height="2"/>
<linearGradient id="SVGID_8__44800" gradientUnits="userSpaceOnUse" x1="32.1285" y1="5.9578" x2="31.8785" y2="58.5828" spreadMethod="reflect">
	<stop offset="0" style="stop-color:#1A6DFF"/>
	<stop offset="1" style="stop-color:#C822FF"/>
</linearGradient>
<path style="fill:url(#SVGID_8__44800);" d="M50,16h-4v-3c0-1.302-0.839-2.402-2-2.816V9c0-1.654-1.346-3-3-3H23c-1.654,0-3,1.346-3,3  v1.184c-1.161,0.414-2,1.514-2,2.816v3h-4c-2.757,0-5,2.243-5,5v24c0,2.757,2.243,5,5,5h8.982c0.3,0,0.613,0.169,0.815,0.437  l4.17,5.581C28.916,57.277,30.382,58,31.989,58c1.614,0,3.088-0.727,4.044-1.996l4.167-5.559C40.407,50.171,40.721,50,41.018,50H50  c2.757,0,5-2.243,5-5V21C55,18.243,52.757,16,50,16z M23,8h18c0.552,0,1,0.448,1,1v1H22V9C22,8.448,22.448,8,23,8z M20,13  c0-0.552,0.448-1,1-1h22c0.552,0,1,0.448,1,1v9.343c0,0.802-0.313,1.555-0.879,2.122l-9,9c-1.17,1.17-3.072,1.17-4.242,0  l-8.999-8.999C20.312,23.898,20,23.144,20,22.342V13z M53,45c0,1.654-1.346,3-3,3h-8.982c-0.927,0-1.83,0.465-2.416,1.245  l-4.167,5.558C33.861,55.563,32.97,56,31.989,56c-0.973,0-1.856-0.433-2.422-1.183l-4.17-5.581C24.814,48.462,23.911,48,22.982,48  H14c-1.654,0-3-1.346-3-3V21c0-1.654,1.346-3,3-3h4v4.342c0,1.336,0.521,2.593,1.466,3.538l8.999,8.999  c0.975,0.975,2.255,1.462,3.535,1.462s2.561-0.487,3.535-1.462l9-9c0.944-0.944,1.465-2.2,1.465-3.536V18h4c1.654,0,3,1.346,3,3V45z  "/>
<linearGradient id="SVGID_9__44800" gradientUnits="userSpaceOnUse" x1="32.171" y1="5.9943" x2="31.921" y2="58.6193" spreadMethod="reflect">
	<stop offset="0" style="stop-color:#1A6DFF"/>
	<stop offset="1" style="stop-color:#C822FF"/>
</linearGradient>
<path style="fill:url(#SVGID_9__44800);" d="M32,39c-1.654,0-3,1.346-3,3s1.346,3,3,3s3-1.346,3-3S33.654,39,32,39z M32,43  c-0.552,0-1-0.448-1-1s0.448-1,1-1s1,0.448,1,1S32.552,43,32,43z"/>
<linearGradient id="SVGID_10__44800" gradientUnits="userSpaceOnUse" x1="42.1708" y1="6.0418" x2="41.9208" y2="58.6668" spreadMethod="reflect">
	<stop offset="0" style="stop-color:#1A6DFF"/>
	<stop offset="1" style="stop-color:#C822FF"/>
</linearGradient>
<path style="fill:url(#SVGID_10__44800);" d="M42,39c-1.654,0-3,1.346-3,3s1.346,3,3,3s3-1.346,3-3S43.654,39,42,39z M42,43  c-0.552,0-1-0.448-1-1s0.448-1,1-1s1,0.448,1,1S42.552,43,42,43z"/>
<linearGradient id="SVGID_11__44800" gradientUnits="userSpaceOnUse" x1="22.1713" y1="5.9468" x2="21.9213" y2="58.5718" spreadMethod="reflect">
	<stop offset="0" style="stop-color:#1A6DFF"/>
	<stop offset="1" style="stop-color:#C822FF"/>
</linearGradient>
<path style="fill:url(#SVGID_11__44800);" d="M22,39c-1.654,0-3,1.346-3,3s1.346,3,3,3s3-1.346,3-3S23.654,39,22,39z M22,43  c-0.552,0-1-0.448-1-1s0.448-1,1-1s1,0.448,1,1S22.552,43,22,43z"/>
</svg>