<svg xmlns="http://www.w3.org/2000/svg" xmlns:xlink="http://www.w3.org/1999/xlink" version="1.1" id="Слой_1" x="0px" y="0px" viewBox="0 0 64 64" style="enable-background:new 0 0 64 64;" xml:space="preserve" width="64" height="64">
<linearGradient id="SVGID_1__44775" gradientUnits="userSpaceOnUse" x1="42" y1="24" x2="42" y2="34.1112" spreadMethod="reflect">
	<stop offset="0" style="stop-color:#6DC7FF"/>
	<stop offset="1" style="stop-color:#E6ABFF"/>
</linearGradient>
<path style="fill:url(#SVGID_1__44775);" d="M46,25c0-0.552-0.448-1-1-1h-6c-0.552,0-1,0.448-1,1v8c0,0.552,0.448,1,1,1h6  c0.552,0,1-0.448,1-1V25z"/>
<linearGradient id="SVGID_2__44775" gradientUnits="userSpaceOnUse" x1="32" y1="5.6667" x2="32" y2="58.669" spreadMethod="reflect">
	<stop offset="0" style="stop-color:#1A6DFF"/>
	<stop offset="1" style="stop-color:#C822FF"/>
</linearGradient>
<path style="fill:url(#SVGID_2__44775);" d="M51.121,15.707l-8.828-8.828C41.727,6.312,40.973,6,40.172,6H15c-1.654,0-3,1.346-3,3v40v2v4  c0,1.654,1.346,3,3,3h34c1.654,0,3-1.346,3-3v-4v-2V17.829C52,17.027,51.688,16.273,51.121,15.707z M48.586,16H43  c-0.552,0-1-0.449-1-1V9.414L48.586,16z M49,56H15c-0.552,0-1-0.449-1-1v-1.184C14.314,53.928,14.648,54,15,54h34  c0.352,0,0.686-0.072,1-0.184V55C50,55.551,49.552,56,49,56z M50,51c0,0.551-0.448,1-1,1H15c-0.552,0-1-0.449-1-1v-2V9  c0-0.551,0.448-1,1-1h25v7c0,1.654,1.346,3,3,3h7v31V51z"/>
<linearGradient id="SVGID_3__44775" gradientUnits="userSpaceOnUse" x1="32" y1="5.6667" x2="32" y2="58.669" spreadMethod="reflect">
	<stop offset="0" style="stop-color:#1A6DFF"/>
	<stop offset="1" style="stop-color:#C822FF"/>
</linearGradient>
<rect x="18" y="20" style="fill:url(#SVGID_3__44775);" width="28" height="2"/>
<linearGradient id="SVGID_4__44775" gradientUnits="userSpaceOnUse" x1="27" y1="5.6667" x2="27" y2="58.669" spreadMethod="reflect">
	<stop offset="0" style="stop-color:#1A6DFF"/>
	<stop offset="1" style="stop-color:#C822FF"/>
</linearGradient>
<rect x="18" y="24" style="fill:url(#SVGID_4__44775);" width="18" height="2"/>
<linearGradient id="SVGID_5__44775" gradientUnits="userSpaceOnUse" x1="22" y1="5.6667" x2="22" y2="58.669" spreadMethod="reflect">
	<stop offset="0" style="stop-color:#1A6DFF"/>
	<stop offset="1" style="stop-color:#C822FF"/>
</linearGradient>
<rect x="18" y="28" style="fill:url(#SVGID_5__44775);" width="8" height="2"/>
<linearGradient id="SVGID_6__44775" gradientUnits="userSpaceOnUse" x1="22" y1="5.6667" x2="22" y2="58.669" spreadMethod="reflect">
	<stop offset="0" style="stop-color:#1A6DFF"/>
	<stop offset="1" style="stop-color:#C822FF"/>
</linearGradient>
<rect x="18" y="32" style="fill:url(#SVGID_6__44775);" width="8" height="2"/>
<linearGradient id="SVGID_7__44775" gradientUnits="userSpaceOnUse" x1="32" y1="5.6667" x2="32" y2="58.669" spreadMethod="reflect">
	<stop offset="0" style="stop-color:#1A6DFF"/>
	<stop offset="1" style="stop-color:#C822FF"/>
</linearGradient>
<rect x="28" y="32" style="fill:url(#SVGID_7__44775);" width="8" height="2"/>
<linearGradient id="SVGID_8__44775" gradientUnits="userSpaceOnUse" x1="32" y1="5.6667" x2="32" y2="58.669" spreadMethod="reflect">
	<stop offset="0" style="stop-color:#1A6DFF"/>
	<stop offset="1" style="stop-color:#C822FF"/>
</linearGradient>
<rect x="28" y="28" style="fill:url(#SVGID_8__44775);" width="8" height="2"/>
<linearGradient id="SVGID_9__44775" gradientUnits="userSpaceOnUse" x1="39" y1="5.6667" x2="39" y2="58.669" spreadMethod="reflect">
	<stop offset="0" style="stop-color:#1A6DFF"/>
	<stop offset="1" style="stop-color:#C822FF"/>
</linearGradient>
<rect x="32" y="46" style="fill:url(#SVGID_9__44775);" width="14" height="2"/>
<linearGradient id="SVGID_10__44775" gradientUnits="userSpaceOnUse" x1="33" y1="5.6667" x2="33" y2="58.669" spreadMethod="reflect">
	<stop offset="0" style="stop-color:#1A6DFF"/>
	<stop offset="1" style="stop-color:#C822FF"/>
</linearGradient>
<rect x="32" y="42" style="fill:url(#SVGID_10__44775);" width="2" height="2"/>
<linearGradient id="SVGID_11__44775" gradientUnits="userSpaceOnUse" x1="37" y1="5.6667" x2="37" y2="58.669" spreadMethod="reflect">
	<stop offset="0" style="stop-color:#1A6DFF"/>
	<stop offset="1" style="stop-color:#C822FF"/>
</linearGradient>
<rect x="36" y="40" style="fill:url(#SVGID_11__44775);" width="2" height="4"/>
<linearGradient id="SVGID_12__44775" gradientUnits="userSpaceOnUse" x1="41" y1="5.6667" x2="41" y2="58.669" spreadMethod="reflect">
	<stop offset="0" style="stop-color:#1A6DFF"/>
	<stop offset="1" style="stop-color:#C822FF"/>
</linearGradient>
<rect x="40" y="40" style="fill:url(#SVGID_12__44775);" width="2" height="4"/>
<linearGradient id="SVGID_13__44775" gradientUnits="userSpaceOnUse" x1="45" y1="5.6667" x2="45" y2="58.669" spreadMethod="reflect">
	<stop offset="0" style="stop-color:#1A6DFF"/>
	<stop offset="1" style="stop-color:#C822FF"/>
</linearGradient>
<rect x="44" y="42" style="fill:url(#SVGID_13__44775);" width="2" height="2"/>
<linearGradient id="SVGID_14__44775" gradientUnits="userSpaceOnUse" x1="22" y1="5.6667" x2="22" y2="58.669" spreadMethod="reflect">
	<stop offset="0" style="stop-color:#1A6DFF"/>
	<stop offset="1" style="stop-color:#C822FF"/>
</linearGradient>
<path style="fill:url(#SVGID_14__44775);" d="M22,40c-2.206,0-4,1.794-4,4s1.794,4,4,4s4-1.794,4-4S24.206,40,22,40z M22,46  c-1.103,0-2-0.897-2-2s0.897-2,2-2s2,0.897,2,2S23.103,46,22,46z"/>
</svg>